<svg xmlns="http://www.w3.org/2000/svg" xmlns:xlink="http://www.w3.org/1999/xlink" width="398" zoomAndPan="magnify" viewBox="0 0 298.5 358.499998" height="478" preserveAspectRatio="xMidYMid meet" version="1.0"><defs><g/><clipPath id="5b3172941e"><path d="M 37.933594 37.714844 L 260.554688 37.714844 L 260.554688 321 L 37.933594 321 Z M 37.933594 37.714844 " clip-rule="nonzero"/></clipPath><clipPath id="c243f1c388"><path d="M 37.933594 37.71875 L 260.683594 37.71875 L 260.683594 321.214844 L 37.933594 321.214844 Z M 37.933594 37.71875 " clip-rule="nonzero"/></clipPath><clipPath id="34e55a1b8a"><path d="M 71.894531 69.484375 L 260.554688 69.484375 L 260.554688 321.03125 L 71.894531 321.03125 Z M 71.894531 69.484375 " clip-rule="nonzero"/></clipPath><clipPath id="27f75ccf34"><path d="M 71.894531 69.484375 L 260.890625 69.484375 L 260.890625 320.734375 L 71.894531 320.734375 Z M 71.894531 69.484375 " clip-rule="nonzero"/></clipPath><clipPath id="83a494c593"><path d="M 94.078125 116.550781 L 260.554688 116.550781 L 260.554688 321 L 94.078125 321 Z M 94.078125 116.550781 " clip-rule="nonzero"/></clipPath><clipPath id="c680dc707a"><path d="M 94.078125 116.554688 L 260.578125 116.554688 L 260.578125 321.300781 L 94.078125 321.300781 Z M 94.078125 116.554688 " clip-rule="nonzero"/></clipPath></defs><g clip-path="url(#5b3172941e)"><path fill="#ffffff" d="M 37.933594 37.714844 L 260.785156 37.714844 L 260.785156 320.949219 L 37.933594 320.949219 Z M 37.933594 37.714844 " fill-opacity="1" fill-rule="nonzero"/></g><g clip-path="url(#c243f1c388)"><path stroke-linecap="butt" transform="matrix(0.750474, 0, 0, 0.750465, 37.934459, 37.717379)" fill="none" stroke-linejoin="miter" d="M -0.00115359 0.00182626 L 296.81136 0.00182626 L 296.81136 377.762308 L -0.00115359 377.762308 L -0.00115359 0.00182626 " stroke="#ffde59" stroke-width="16" stroke-opacity="1" stroke-miterlimit="4"/></g><g clip-path="url(#34e55a1b8a)"><path fill="#ffffff" d="M 71.894531 69.484375 L 260.273438 69.484375 L 260.273438 321.152344 L 71.894531 321.152344 Z M 71.894531 69.484375 " fill-opacity="1" fill-rule="nonzero"/></g><g clip-path="url(#27f75ccf34)"><path stroke-linecap="butt" transform="matrix(0.751351, 0, 0, 0.749126, 71.894877, 69.482653)" fill="none" stroke-linejoin="miter" d="M -0.000460529 0.00229921 L 251.541231 0.00229921 L 251.541231 335.392934 L -0.000460529 335.392934 L -0.000460529 0.00229921 " stroke="#000000" stroke-width="16" stroke-opacity="1" stroke-miterlimit="4"/></g><g clip-path="url(#83a494c593)"><path fill="#ffffff" d="M 94.078125 116.550781 L 260.273438 116.550781 L 260.273438 320.941406 L 94.078125 320.941406 Z M 94.078125 116.550781 " fill-opacity="1" fill-rule="nonzero"/></g><g clip-path="url(#c680dc707a)"><path stroke-linecap="butt" transform="matrix(0.750158, 0, 0, 0.750946, 94.079944, 116.554618)" fill="none" stroke-linejoin="miter" d="M -0.00242512 0.0000921164 L 221.950708 0.0000921164 L 221.950708 272.651146 L -0.00242512 272.651146 L -0.00242512 0.0000921164 " stroke="#000000" stroke-width="16" stroke-opacity="1" stroke-miterlimit="4"/></g><g fill="#000000" fill-opacity="1"><g transform="translate(195.337355, 143.683762)"><g><path d="M 6.140625 0.203125 C 5.003906 0.203125 4.039062 0.0234375 3.25 -0.328125 C 2.46875 -0.679688 1.875 -1.179688 1.46875 -1.828125 C 1.070312 -2.484375 0.875 -3.257812 0.875 -4.15625 C 0.875 -4.976562 1.078125 -5.691406 1.484375 -6.296875 C 1.898438 -6.910156 2.503906 -7.390625 3.296875 -7.734375 L 3.296875 -7.9375 C 2.734375 -8.28125 2.300781 -8.691406 2 -9.171875 C 1.707031 -9.648438 1.5625 -10.207031 1.5625 -10.84375 C 1.5625 -11.570312 1.738281 -12.210938 2.09375 -12.765625 C 2.457031 -13.316406 2.984375 -13.742188 3.671875 -14.046875 C 4.359375 -14.359375 5.179688 -14.515625 6.140625 -14.515625 C 7.097656 -14.515625 7.914062 -14.359375 8.59375 -14.046875 C 9.28125 -13.742188 9.800781 -13.316406 10.15625 -12.765625 C 10.519531 -12.210938 10.703125 -11.570312 10.703125 -10.84375 C 10.703125 -10.207031 10.550781 -9.648438 10.25 -9.171875 C 9.957031 -8.703125 9.523438 -8.289062 8.953125 -7.9375 L 8.953125 -7.734375 C 9.785156 -7.398438 10.398438 -6.925781 10.796875 -6.3125 C 11.191406 -5.695312 11.390625 -4.976562 11.390625 -4.15625 C 11.390625 -3.257812 11.1875 -2.484375 10.78125 -1.828125 C 10.382812 -1.179688 9.796875 -0.679688 9.015625 -0.328125 C 8.234375 0.0234375 7.273438 0.203125 6.140625 0.203125 Z M 6.140625 -8.734375 C 6.703125 -8.734375 7.148438 -8.890625 7.484375 -9.203125 C 7.828125 -9.523438 8 -9.960938 8 -10.515625 C 8 -11.078125 7.828125 -11.515625 7.484375 -11.828125 C 7.148438 -12.148438 6.703125 -12.3125 6.140625 -12.3125 C 5.554688 -12.3125 5.097656 -12.148438 4.765625 -11.828125 C 4.429688 -11.515625 4.265625 -11.078125 4.265625 -10.515625 C 4.265625 -9.953125 4.429688 -9.515625 4.765625 -9.203125 C 5.097656 -8.890625 5.554688 -8.734375 6.140625 -8.734375 Z M 6.140625 -2.203125 C 6.898438 -2.203125 7.488281 -2.390625 7.90625 -2.765625 C 8.320312 -3.148438 8.53125 -3.679688 8.53125 -4.359375 C 8.53125 -5.046875 8.320312 -5.578125 7.90625 -5.953125 C 7.488281 -6.335938 6.898438 -6.53125 6.140625 -6.53125 C 5.367188 -6.53125 4.773438 -6.335938 4.359375 -5.953125 C 3.941406 -5.578125 3.734375 -5.046875 3.734375 -4.359375 C 3.734375 -3.679688 3.941406 -3.148438 4.359375 -2.765625 C 4.773438 -2.390625 5.367188 -2.203125 6.140625 -2.203125 Z M 6.140625 -2.203125 "/></g></g></g><g fill="#000000" fill-opacity="1"><g transform="translate(207.608429, 143.683762)"><g><path d="M 3.046875 0 L 0.1875 0 L 3.265625 -5.59375 L 0.359375 -10.796875 L 3.25 -10.796875 L 5.125 -7.25 L 5.34375 -7.25 L 7.21875 -10.796875 L 10.03125 -10.796875 L 7.203125 -5.59375 L 10.203125 0 L 7.3125 0 L 5.28125 -3.9375 L 5.046875 -3.9375 Z M 3.046875 0 "/></g></g></g><g fill="#000000" fill-opacity="1"><g transform="translate(217.990893, 143.683762)"><g><path d="M 0.75 0 L 0.75 -2.34375 L 4.203125 -2.34375 L 4.203125 -11.25 L 3.984375 -11.3125 C 3.492188 -11.070312 3.007812 -10.882812 2.53125 -10.75 C 2.0625 -10.613281 1.523438 -10.503906 0.921875 -10.421875 L 0.921875 -12.84375 C 2.503906 -13.175781 3.785156 -13.664062 4.765625 -14.3125 L 7.015625 -14.3125 L 7.015625 -2.34375 L 10.09375 -2.34375 L 10.09375 0 Z M 0.75 0 "/></g></g></g><g fill="#000000" fill-opacity="1"><g transform="translate(228.549496, 143.683762)"><g><path d="M 6.984375 0.203125 C 5.816406 0.203125 4.800781 -0.0507812 3.9375 -0.5625 C 3.070312 -1.082031 2.398438 -1.890625 1.921875 -2.984375 C 1.441406 -4.085938 1.203125 -5.476562 1.203125 -7.15625 C 1.203125 -8.832031 1.441406 -10.21875 1.921875 -11.3125 C 2.398438 -12.40625 3.070312 -13.210938 3.9375 -13.734375 C 4.800781 -14.253906 5.816406 -14.515625 6.984375 -14.515625 C 8.160156 -14.515625 9.179688 -14.253906 10.046875 -13.734375 C 10.910156 -13.210938 11.582031 -12.40625 12.0625 -11.3125 C 12.539062 -10.21875 12.78125 -8.832031 12.78125 -7.15625 C 12.78125 -5.476562 12.539062 -4.085938 12.0625 -2.984375 C 11.582031 -1.890625 10.910156 -1.082031 10.046875 -0.5625 C 9.179688 -0.0507812 8.160156 0.203125 6.984375 0.203125 Z M 6.984375 -2.1875 C 7.628906 -2.1875 8.164062 -2.34375 8.59375 -2.65625 C 9.019531 -2.96875 9.347656 -3.488281 9.578125 -4.21875 C 9.816406 -4.945312 9.9375 -5.925781 9.9375 -7.15625 C 9.9375 -8.382812 9.816406 -9.363281 9.578125 -10.09375 C 9.347656 -10.820312 9.019531 -11.34375 8.59375 -11.65625 C 8.164062 -11.96875 7.628906 -12.125 6.984375 -12.125 C 6.347656 -12.125 5.8125 -11.96875 5.375 -11.65625 C 4.945312 -11.34375 4.617188 -10.820312 4.390625 -10.09375 C 4.160156 -9.363281 4.046875 -8.382812 4.046875 -7.15625 C 4.046875 -5.925781 4.160156 -4.945312 4.390625 -4.21875 C 4.617188 -3.488281 4.945312 -2.96875 5.375 -2.65625 C 5.8125 -2.34375 6.347656 -2.1875 6.984375 -2.1875 Z M 6.984375 -2.1875 "/></g></g></g><g fill="#000000" fill-opacity="1"><g transform="translate(192.274517, 104.132803)"><g><path d="M 5.984375 0.203125 C 4.628906 0.203125 3.5625 -0.0664062 2.78125 -0.609375 C 2.007812 -1.148438 1.492188 -1.910156 1.234375 -2.890625 L 3.390625 -3.859375 L 3.609375 -3.8125 C 3.984375 -2.726562 4.769531 -2.1875 5.96875 -2.1875 C 6.894531 -2.1875 7.597656 -2.570312 8.078125 -3.34375 C 8.566406 -4.113281 8.8125 -5.273438 8.8125 -6.828125 L 8.625 -6.890625 C 8.300781 -6.273438 7.875 -5.804688 7.34375 -5.484375 C 6.820312 -5.160156 6.144531 -5 5.3125 -5 C 4.445312 -5 3.691406 -5.1875 3.046875 -5.5625 C 2.398438 -5.945312 1.894531 -6.488281 1.53125 -7.1875 C 1.175781 -7.882812 1 -8.707031 1 -9.65625 C 1 -10.644531 1.207031 -11.503906 1.625 -12.234375 C 2.039062 -12.960938 2.632812 -13.523438 3.40625 -13.921875 C 4.175781 -14.316406 5.070312 -14.515625 6.09375 -14.515625 C 7.863281 -14.515625 9.242188 -13.953125 10.234375 -12.828125 C 11.234375 -11.710938 11.734375 -9.910156 11.734375 -7.421875 C 11.734375 -5.710938 11.503906 -4.289062 11.046875 -3.15625 C 10.585938 -2.019531 9.925781 -1.175781 9.0625 -0.625 C 8.207031 -0.0703125 7.179688 0.203125 5.984375 0.203125 Z M 6.171875 -7.328125 C 6.898438 -7.328125 7.476562 -7.539062 7.90625 -7.96875 C 8.34375 -8.394531 8.5625 -8.972656 8.5625 -9.703125 C 8.5625 -10.441406 8.347656 -11.023438 7.921875 -11.453125 C 7.503906 -11.890625 6.921875 -12.109375 6.171875 -12.109375 C 5.441406 -12.109375 4.867188 -11.898438 4.453125 -11.484375 C 4.046875 -11.066406 3.84375 -10.472656 3.84375 -9.703125 C 3.84375 -8.953125 4.046875 -8.367188 4.453125 -7.953125 C 4.867188 -7.535156 5.441406 -7.328125 6.171875 -7.328125 Z M 6.171875 -7.328125 "/></g></g></g><g fill="#000000" fill-opacity="1"><g transform="translate(205.211007, 104.132803)"><g><path d="M 3.046875 0 L 0.1875 0 L 3.265625 -5.59375 L 0.359375 -10.796875 L 3.25 -10.796875 L 5.125 -7.25 L 5.34375 -7.25 L 7.21875 -10.796875 L 10.03125 -10.796875 L 7.203125 -5.59375 L 10.203125 0 L 7.3125 0 L 5.28125 -3.9375 L 5.046875 -3.9375 Z M 3.046875 0 "/></g></g></g><g fill="#000000" fill-opacity="1"><g transform="translate(215.593471, 104.132803)"><g><path d="M 0.75 0 L 0.75 -2.34375 L 4.203125 -2.34375 L 4.203125 -11.25 L 3.984375 -11.3125 C 3.492188 -11.070312 3.007812 -10.882812 2.53125 -10.75 C 2.0625 -10.613281 1.523438 -10.503906 0.921875 -10.421875 L 0.921875 -12.84375 C 2.503906 -13.175781 3.785156 -13.664062 4.765625 -14.3125 L 7.015625 -14.3125 L 7.015625 -2.34375 L 10.09375 -2.34375 L 10.09375 0 Z M 0.75 0 "/></g></g></g><g fill="#000000" fill-opacity="1"><g transform="translate(226.152074, 104.132803)"><g><path d="M 0.6875 -1.140625 C 0.6875 -1.921875 0.773438 -2.582031 0.953125 -3.125 C 1.128906 -3.664062 1.410156 -4.160156 1.796875 -4.609375 C 2.191406 -5.054688 2.75 -5.539062 3.46875 -6.0625 L 5.375 -7.4375 C 5.894531 -7.8125 6.300781 -8.132812 6.59375 -8.40625 C 6.882812 -8.675781 7.101562 -8.960938 7.25 -9.265625 C 7.394531 -9.566406 7.46875 -9.910156 7.46875 -10.296875 C 7.46875 -10.878906 7.289062 -11.328125 6.9375 -11.640625 C 6.582031 -11.960938 6.054688 -12.125 5.359375 -12.125 C 4.679688 -12.125 4.078125 -11.960938 3.546875 -11.640625 C 3.015625 -11.316406 2.578125 -10.875 2.234375 -10.3125 L 2.046875 -10.265625 L 0.484375 -12 C 0.992188 -12.757812 1.65625 -13.367188 2.46875 -13.828125 C 3.289062 -14.285156 4.289062 -14.515625 5.46875 -14.515625 C 6.53125 -14.515625 7.421875 -14.335938 8.140625 -13.984375 C 8.867188 -13.628906 9.40625 -13.144531 9.75 -12.53125 C 10.101562 -11.925781 10.28125 -11.226562 10.28125 -10.4375 C 10.28125 -9.757812 10.132812 -9.140625 9.84375 -8.578125 C 9.5625 -8.023438 9.171875 -7.507812 8.671875 -7.03125 C 8.171875 -6.550781 7.53125 -6.035156 6.75 -5.484375 L 5.046875 -4.3125 C 4.535156 -3.945312 4.179688 -3.617188 3.984375 -3.328125 C 3.785156 -3.046875 3.6875 -2.726562 3.6875 -2.375 L 10.140625 -2.375 L 10.140625 0 L 0.6875 0 Z M 0.6875 -1.140625 "/></g></g></g><g fill="#000000" fill-opacity="1"><g transform="translate(187.526592, 64.832305)"><g><path d="M 0.75 0 L 0.75 -2.34375 L 4.203125 -2.34375 L 4.203125 -11.25 L 3.984375 -11.3125 C 3.492188 -11.070312 3.007812 -10.882812 2.53125 -10.75 C 2.0625 -10.613281 1.523438 -10.503906 0.921875 -10.421875 L 0.921875 -12.84375 C 2.503906 -13.175781 3.785156 -13.664062 4.765625 -14.3125 L 7.015625 -14.3125 L 7.015625 -2.34375 L 10.09375 -2.34375 L 10.09375 0 Z M 0.75 0 "/></g></g></g><g fill="#000000" fill-opacity="1"><g transform="translate(198.085195, 64.832305)"><g><path d="M 0.75 0 L 0.75 -2.34375 L 4.203125 -2.34375 L 4.203125 -11.25 L 3.984375 -11.3125 C 3.492188 -11.070312 3.007812 -10.882812 2.53125 -10.75 C 2.0625 -10.613281 1.523438 -10.503906 0.921875 -10.421875 L 0.921875 -12.84375 C 2.503906 -13.175781 3.785156 -13.664062 4.765625 -14.3125 L 7.015625 -14.3125 L 7.015625 -2.34375 L 10.09375 -2.34375 L 10.09375 0 Z M 0.75 0 "/></g></g></g><g fill="#000000" fill-opacity="1"><g transform="translate(208.643798, 64.832305)"><g><path d="M 3.046875 0 L 0.1875 0 L 3.265625 -5.59375 L 0.359375 -10.796875 L 3.25 -10.796875 L 5.125 -7.25 L 5.34375 -7.25 L 7.21875 -10.796875 L 10.03125 -10.796875 L 7.203125 -5.59375 L 10.203125 0 L 7.3125 0 L 5.28125 -3.9375 L 5.046875 -3.9375 Z M 3.046875 0 "/></g></g></g><g fill="#000000" fill-opacity="1"><g transform="translate(219.026262, 64.832305)"><g><path d="M 0.75 0 L 0.75 -2.34375 L 4.203125 -2.34375 L 4.203125 -11.25 L 3.984375 -11.3125 C 3.492188 -11.070312 3.007812 -10.882812 2.53125 -10.75 C 2.0625 -10.613281 1.523438 -10.503906 0.921875 -10.421875 L 0.921875 -12.84375 C 2.503906 -13.175781 3.785156 -13.664062 4.765625 -14.3125 L 7.015625 -14.3125 L 7.015625 -2.34375 L 10.09375 -2.34375 L 10.09375 0 Z M 0.75 0 "/></g></g></g><g fill="#000000" fill-opacity="1"><g transform="translate(229.584865, 64.832305)"><g><path d="M 9.71875 0 L 7.015625 0 L 7.015625 -3.109375 L 0.484375 -3.109375 L 0.484375 -5.390625 L 6.09375 -14.3125 L 9.71875 -14.3125 L 9.71875 -5.390625 L 11.921875 -5.390625 L 11.921875 -3.109375 L 9.71875 -3.109375 Z M 3.390625 -5.59375 L 3.46875 -5.390625 L 7.015625 -5.390625 L 7.015625 -10.9375 L 6.78125 -10.96875 Z M 3.390625 -5.59375 "/></g></g></g></svg>