<svg xmlns="http://www.w3.org/2000/svg" xmlns:xlink="http://www.w3.org/1999/xlink" width="345" zoomAndPan="magnify" viewBox="0 0 258.75 281.25" height="375" preserveAspectRatio="xMidYMid meet" version="1.0"><defs><g/><clipPath id="07e4007262"><path d="M 38.125 37.59375 L 220.8125 37.59375 L 220.8125 197.824219 L 38.125 197.824219 Z M 38.125 37.59375 " clip-rule="nonzero"/></clipPath></defs><g clip-path="url(#07e4007262)"><path fill="#100f0d" d="M 214.640625 158.539062 L 173.644531 158.539062 C 169.820312 148.640625 162.589844 140.21875 153.050781 135.160156 C 161.253906 128.257812 166.023438 118.195312 166.023438 107.332031 C 166.023438 92.054688 156.609375 78.949219 143.289062 73.484375 C 143.683594 57.054688 157.09375 43.796875 173.597656 43.796875 C 190.347656 43.796875 203.976562 57.433594 203.976562 74.203125 C 203.976562 84.761719 198.546875 94.417969 189.445312 100.023438 C 188.4375 100.640625 187.878906 101.777344 187.988281 102.949219 C 188.101562 104.121094 188.867188 105.128906 189.96875 105.546875 C 204.726562 111.117188 214.640625 125.445312 214.640625 141.191406 Z M 170.511719 191.664062 L 88.425781 191.664062 L 88.425781 174.316406 C 88.425781 158.570312 98.34375 144.246094 113.097656 138.671875 C 114.199219 138.253906 114.964844 137.246094 115.082031 136.074219 C 115.1875 134.902344 114.628906 133.769531 113.621094 133.148438 C 104.519531 127.542969 99.089844 117.890625 99.089844 107.332031 C 99.089844 90.5625 112.71875 76.925781 129.46875 76.925781 C 146.21875 76.925781 159.851562 90.5625 159.851562 107.332031 C 159.851562 117.890625 154.417969 127.542969 145.316406 133.148438 C 144.308594 133.769531 143.75 134.902344 143.855469 136.074219 C 143.972656 137.246094 144.738281 138.253906 145.839844 138.671875 C 160.59375 144.246094 170.511719 158.570312 170.511719 174.316406 Z M 85.292969 158.539062 L 44.296875 158.539062 L 44.296875 141.191406 C 44.296875 125.445312 54.210938 111.117188 68.96875 105.546875 C 70.070312 105.128906 70.835938 104.121094 70.949219 102.949219 C 71.058594 101.777344 70.5 100.640625 69.492188 100.023438 C 60.390625 94.417969 54.960938 84.761719 54.960938 74.203125 C 54.960938 57.433594 68.589844 43.796875 85.339844 43.796875 C 101.84375 43.796875 115.253906 57.054688 115.648438 73.484375 C 102.328125 78.949219 92.917969 92.054688 92.917969 107.332031 C 92.917969 118.195312 97.683594 128.257812 105.886719 135.160156 C 96.351562 140.21875 89.117188 148.640625 85.292969 158.539062 Z M 197.179688 102.035156 C 205.382812 95.132812 210.148438 85.066406 210.148438 74.203125 C 210.148438 54.027344 193.753906 37.617188 173.597656 37.617188 C 154.324219 37.617188 138.527344 52.632812 137.179688 71.582031 C 134.691406 71.046875 132.113281 70.746094 129.46875 70.746094 C 126.824219 70.746094 124.246094 71.046875 121.761719 71.582031 C 120.410156 52.632812 104.613281 37.617188 85.339844 37.617188 C 65.183594 37.617188 48.789062 54.027344 48.789062 74.203125 C 48.789062 85.066406 53.554688 95.132812 61.757812 102.035156 C 47.429688 109.628906 38.125 124.742188 38.125 141.191406 L 38.125 161.625 C 38.125 163.335938 39.503906 164.714844 41.210938 164.714844 L 83.425781 164.714844 C 82.71875 167.839844 82.253906 171.039062 82.253906 174.316406 L 82.253906 194.75 C 82.253906 196.460938 83.632812 197.839844 85.339844 197.839844 L 173.597656 197.839844 C 175.304688 197.839844 176.683594 196.460938 176.683594 194.75 L 176.683594 174.316406 C 176.683594 171.039062 176.21875 167.839844 175.511719 164.714844 L 217.726562 164.714844 C 219.433594 164.714844 220.8125 163.335938 220.8125 161.625 L 220.8125 141.191406 C 220.8125 124.742188 211.507812 109.628906 197.179688 102.035156 " fill-opacity="1" fill-rule="nonzero"/></g><g fill="#000000" fill-opacity="1"><g transform="translate(74.466346, 236.08283)"><g><path d="M 5.21875 0 L 5.21875 -6 L 9.488281 -6 C 13.101562 -6 15.109375 -8.433594 15.109375 -11.34375 C 15.109375 -14.28125 13.125 -16.738281 9.488281 -16.738281 L 1.65625 -16.738281 L 1.65625 0 Z M 11.46875 -11.367188 C 11.46875 -9.964844 10.414062 -9.058594 9.011719 -9.058594 L 5.21875 -9.058594 L 5.21875 -13.679688 L 9.011719 -13.679688 C 10.414062 -13.679688 11.46875 -12.75 11.46875 -11.367188 Z M 11.46875 -11.367188 "/></g></g></g><g fill="#000000" fill-opacity="1"><g transform="translate(92.634976, 236.08283)"><g><path d="M 13.503906 0 L 13.503906 -3.085938 L 5.21875 -3.085938 L 5.21875 -6.976562 L 13.328125 -6.976562 L 13.328125 -10.039062 L 5.21875 -10.039062 L 5.21875 -13.679688 L 13.503906 -13.679688 L 13.503906 -16.738281 L 1.65625 -16.738281 L 1.65625 0 Z M 13.503906 0 "/></g></g></g><g fill="#000000" fill-opacity="1"><g transform="translate(109.774744, 236.08283)"><g><path d="M 0.851562 -8.355469 C 0.851562 -3.3125 4.542969 0.300781 9.585938 0.300781 C 14.65625 0.300781 18.347656 -3.3125 18.347656 -8.355469 C 18.347656 -13.402344 14.65625 -17.015625 9.585938 -17.015625 C 4.542969 -17.015625 0.851562 -13.402344 0.851562 -8.355469 Z M 14.683594 -8.355469 C 14.683594 -5.246094 12.675781 -2.859375 9.585938 -2.859375 C 6.5 -2.859375 4.515625 -5.246094 4.515625 -8.355469 C 4.515625 -11.496094 6.5 -13.855469 9.585938 -13.855469 C 12.675781 -13.855469 14.683594 -11.496094 14.683594 -8.355469 Z M 14.683594 -8.355469 "/></g></g></g><g fill="#000000" fill-opacity="1"><g transform="translate(131.481654, 236.08283)"><g><path d="M 5.21875 0 L 5.21875 -6 L 9.488281 -6 C 13.101562 -6 15.109375 -8.433594 15.109375 -11.34375 C 15.109375 -14.28125 13.125 -16.738281 9.488281 -16.738281 L 1.65625 -16.738281 L 1.65625 0 Z M 11.46875 -11.367188 C 11.46875 -9.964844 10.414062 -9.058594 9.011719 -9.058594 L 5.21875 -9.058594 L 5.21875 -13.679688 L 9.011719 -13.679688 C 10.414062 -13.679688 11.46875 -12.75 11.46875 -11.367188 Z M 11.46875 -11.367188 "/></g></g></g><g fill="#000000" fill-opacity="1"><g transform="translate(149.650285, 236.08283)"><g><path d="M 12.296875 0 L 12.296875 -3.136719 L 5.21875 -3.136719 L 5.21875 -16.738281 L 1.65625 -16.738281 L 1.65625 0 Z M 12.296875 0 "/></g></g></g><g fill="#000000" fill-opacity="1"><g transform="translate(165.284408, 236.08283)"><g><path d="M 13.503906 0 L 13.503906 -3.085938 L 5.21875 -3.085938 L 5.21875 -6.976562 L 13.328125 -6.976562 L 13.328125 -10.039062 L 5.21875 -10.039062 L 5.21875 -13.679688 L 13.503906 -13.679688 L 13.503906 -16.738281 L 1.65625 -16.738281 L 1.65625 0 Z M 13.503906 0 "/></g></g></g><g fill="#000000" fill-opacity="1"><g transform="translate(182.423556, 236.08283)"><g/></g></g><g fill="#000000" fill-opacity="1"><g transform="translate(191.357548, 236.08283)"><g/></g></g></svg>