<svg xmlns="http://www.w3.org/2000/svg" xmlns:xlink="http://www.w3.org/1999/xlink" width="364" zoomAndPan="magnify" viewBox="0 0 273 281.999989" height="376" preserveAspectRatio="xMidYMid meet" version="1.0"><defs><g/><clipPath id="8fb31037f4"><path d="M 38 38.238281 L 235.585938 38.238281 L 235.585938 198.738281 L 38 198.738281 Z M 38 38.238281 " clip-rule="nonzero"/></clipPath></defs><g clip-path="url(#8fb31037f4)"><path fill="#000000" d="M 235.546875 147.503906 C 235.5625 147.910156 235.496094 148.300781 235.355469 148.675781 C 235.210938 149.054688 234.996094 149.386719 234.714844 149.679688 C 234.4375 149.96875 234.109375 150.191406 233.738281 150.351562 C 233.367188 150.507812 232.976562 150.585938 232.574219 150.585938 C 232.167969 150.585938 231.78125 150.507812 231.410156 150.351562 C 231.039062 150.191406 230.710938 149.96875 230.429688 149.679688 C 230.152344 149.386719 229.9375 149.054688 229.792969 148.675781 C 229.648438 148.300781 229.585938 147.910156 229.597656 147.503906 C 229.597656 134.0625 226.894531 121.890625 221.570312 111.324219 C 219.414062 107.066406 216.847656 103.070312 213.875 99.335938 C 210.898438 95.601562 207.582031 92.207031 203.914062 89.148438 C 197.21875 83.550781 189.804688 79.167969 181.671875 76.003906 L 181.671875 90.667969 C 181.667969 91.042969 181.601562 91.40625 181.460938 91.753906 C 181.324219 92.101562 181.128906 92.414062 180.871094 92.6875 C 180.613281 92.964844 180.316406 93.183594 179.976562 93.34375 C 179.640625 93.503906 179.28125 93.597656 178.90625 93.625 L 170.886719 94.230469 C 169.828125 94.304688 168.785156 94.464844 167.753906 94.707031 C 166.722656 94.949219 165.714844 95.273438 164.734375 95.675781 C 163.753906 96.078125 162.8125 96.554688 161.90625 97.105469 C 161.003906 97.65625 160.148438 98.277344 159.339844 98.964844 C 158.535156 99.652344 157.789062 100.398438 157.101562 101.203125 C 156.414062 102.011719 155.792969 102.867188 155.242188 103.769531 C 154.6875 104.675781 154.210938 105.617188 153.808594 106.597656 C 153.40625 107.574219 153.085938 108.582031 152.84375 109.613281 L 151.882812 113.648438 C 151.589844 114.902344 151.117188 116.085938 150.464844 117.195312 C 149.816406 118.308594 149.015625 119.300781 148.0625 120.171875 C 147.113281 121.039062 146.054688 121.75 144.890625 122.300781 C 143.722656 122.851562 142.503906 123.21875 141.226562 123.402344 L 136.628906 124.074219 C 136.019531 124.160156 135.53125 124.449219 135.171875 124.949219 C 134.808594 125.441406 134.679688 125.988281 134.777344 126.589844 L 136.921875 140.179688 C 137.019531 140.816406 137.175781 141.433594 137.382812 142.042969 C 137.589844 142.648438 137.851562 143.234375 138.164062 143.792969 C 138.476562 144.355469 138.835938 144.882812 139.242188 145.378906 C 139.648438 145.875 140.097656 146.332031 140.585938 146.75 C 141.074219 147.164062 141.59375 147.535156 142.148438 147.859375 C 142.703125 148.183594 143.28125 148.457031 143.882812 148.679688 C 144.484375 148.898438 145.105469 149.066406 145.734375 149.175781 C 146.367188 149.289062 147.007812 149.34375 147.648438 149.339844 L 152.710938 149.339844 C 153.390625 149.339844 154.070312 149.375 154.746094 149.441406 C 155.421875 149.507812 156.089844 149.609375 156.757812 149.742188 C 157.421875 149.875 158.082031 150.039062 158.730469 150.234375 C 159.378906 150.433594 160.019531 150.660156 160.644531 150.921875 C 161.273438 151.183594 161.886719 151.472656 162.484375 151.792969 C 163.082031 152.113281 163.664062 152.460938 164.230469 152.835938 C 164.792969 153.214844 165.339844 153.617188 165.863281 154.046875 C 166.390625 154.480469 166.890625 154.933594 167.371094 155.414062 C 167.851562 155.894531 168.308594 156.394531 168.738281 156.917969 C 169.167969 157.445312 169.574219 157.988281 169.953125 158.550781 C 170.328125 159.117188 170.679688 159.695312 171 160.296875 C 171.320312 160.894531 171.609375 161.507812 171.871094 162.132812 C 172.128906 162.757812 172.359375 163.398438 172.554688 164.046875 C 172.753906 164.695312 172.917969 165.351562 173.054688 166.019531 C 173.1875 166.683594 173.285156 167.355469 173.355469 168.027344 C 173.421875 168.703125 173.453125 169.378906 173.457031 170.058594 L 173.457031 178.34375 C 173.46875 178.746094 173.40625 179.136719 173.261719 179.511719 C 173.117188 179.890625 172.90625 180.222656 172.625 180.515625 C 172.34375 180.804688 172.015625 181.03125 171.644531 181.1875 C 171.273438 181.34375 170.886719 181.425781 170.480469 181.425781 C 170.078125 181.425781 169.691406 181.34375 169.316406 181.1875 C 168.945312 181.03125 168.621094 180.804688 168.339844 180.515625 C 168.058594 180.222656 167.847656 179.890625 167.703125 179.511719 C 167.558594 179.136719 167.492188 178.746094 167.507812 178.34375 L 167.507812 170.058594 C 167.507812 169.089844 167.410156 168.128906 167.21875 167.175781 C 167.03125 166.226562 166.75 165.300781 166.378906 164.40625 C 166.003906 163.507812 165.550781 162.660156 165.007812 161.851562 C 164.46875 161.046875 163.855469 160.300781 163.171875 159.613281 C 162.484375 158.925781 161.738281 158.316406 160.929688 157.773438 C 160.121094 157.234375 159.269531 156.78125 158.375 156.410156 C 157.476562 156.039062 156.554688 155.757812 155.601562 155.566406 C 154.648438 155.375 153.6875 155.28125 152.714844 155.28125 L 147.652344 155.28125 C 146.65625 155.285156 145.671875 155.199219 144.691406 155.027344 C 143.714844 154.855469 142.757812 154.597656 141.824219 154.257812 C 140.890625 153.914062 139.996094 153.492188 139.136719 152.992188 C 138.28125 152.488281 137.472656 151.917969 136.71875 151.269531 C 135.960938 150.625 135.269531 149.917969 134.640625 149.152344 C 134.007812 148.382812 133.453125 147.5625 132.96875 146.695312 C 132.484375 145.828125 132.082031 144.925781 131.761719 143.984375 C 131.4375 143.046875 131.199219 142.085938 131.050781 141.105469 L 128.90625 127.5 C 128.820312 126.96875 128.789062 126.433594 128.8125 125.894531 C 128.832031 125.355469 128.90625 124.828125 129.035156 124.304688 C 129.164062 123.78125 129.339844 123.273438 129.566406 122.785156 C 129.796875 122.296875 130.070312 121.835938 130.386719 121.402344 C 130.707031 120.96875 131.066406 120.570312 131.464844 120.210938 C 131.863281 119.847656 132.292969 119.527344 132.753906 119.25 C 133.21875 118.972656 133.703125 118.742188 134.210938 118.5625 C 134.71875 118.382812 135.238281 118.253906 135.769531 118.175781 L 140.375 117.503906 C 141.058594 117.40625 141.714844 117.207031 142.34375 116.914062 C 142.96875 116.617188 143.539062 116.234375 144.050781 115.765625 C 144.5625 115.296875 144.992188 114.765625 145.34375 114.167969 C 145.691406 113.570312 145.945312 112.933594 146.105469 112.257812 L 147.0625 108.222656 C 147.378906 106.886719 147.796875 105.585938 148.316406 104.316406 C 148.839844 103.046875 149.457031 101.824219 150.171875 100.652344 C 150.886719 99.480469 151.691406 98.375 152.582031 97.328125 C 153.472656 96.285156 154.441406 95.316406 155.484375 94.425781 C 156.53125 93.535156 157.640625 92.734375 158.8125 92.019531 C 159.984375 91.304688 161.207031 90.6875 162.476562 90.164062 C 163.746094 89.644531 165.050781 89.226562 166.386719 88.914062 C 167.726562 88.597656 169.078125 88.390625 170.449219 88.292969 L 175.722656 87.898438 L 175.722656 71.851562 C 175.722656 71.625 175.746094 71.398438 175.800781 71.179688 C 175.851562 70.957031 175.925781 70.742188 176.027344 70.539062 C 176.128906 70.332031 176.25 70.144531 176.394531 69.964844 C 176.539062 69.789062 176.703125 69.632812 176.882812 69.492188 C 177.066406 69.355469 177.257812 69.238281 177.464844 69.144531 C 177.675781 69.050781 177.890625 68.980469 178.113281 68.933594 C 178.335938 68.890625 178.5625 68.871094 178.792969 68.878906 C 179.019531 68.886719 179.242188 68.917969 179.464844 68.976562 C 180.039062 69.136719 193.726562 72.882812 207.542969 84.429688 C 211.539062 87.742188 215.164062 91.425781 218.40625 95.476562 C 221.652344 99.527344 224.453125 103.867188 226.808594 108.492188 C 232.605469 119.941406 235.546875 133.066406 235.546875 147.503906 Z M 103.738281 71.542969 C 103.316406 70.601562 102.769531 69.738281 102.097656 68.957031 C 101.425781 68.175781 100.65625 67.507812 99.785156 66.953125 C 98.917969 66.394531 97.988281 65.976562 96.996094 65.691406 C 96.007812 65.40625 94.996094 65.269531 93.964844 65.277344 C 92.933594 65.289062 91.925781 65.445312 90.941406 65.75 C 89.953125 66.058594 89.035156 66.496094 88.175781 67.070312 C 87.320312 67.644531 86.5625 68.328125 85.90625 69.121094 C 85.25 69.917969 84.722656 70.789062 84.320312 71.738281 C 84.167969 72.101562 84.085938 72.480469 84.085938 72.875 C 84.082031 73.265625 84.152344 73.648438 84.300781 74.011719 C 84.449219 74.378906 84.660156 74.699219 84.9375 74.980469 C 85.214844 75.261719 85.535156 75.476562 85.898438 75.632812 C 86.269531 75.789062 86.652344 75.867188 87.054688 75.867188 C 87.65625 75.871094 88.210938 75.710938 88.710938 75.378906 C 89.214844 75.046875 89.585938 74.605469 89.820312 74.054688 C 89.996094 73.636719 90.226562 73.253906 90.515625 72.90625 C 90.800781 72.558594 91.132812 72.257812 91.507812 72.007812 C 91.882812 71.757812 92.285156 71.5625 92.71875 71.429688 C 93.148438 71.296875 93.589844 71.226562 94.042969 71.222656 C 94.496094 71.21875 94.9375 71.277344 95.371094 71.402344 C 95.804688 71.527344 96.214844 71.710938 96.59375 71.953125 C 96.972656 72.195312 97.3125 72.488281 97.605469 72.832031 C 97.902344 73.175781 98.140625 73.550781 98.324219 73.964844 C 98.488281 74.324219 98.710938 74.636719 98.996094 74.910156 C 99.28125 75.179688 99.609375 75.386719 99.976562 75.527344 C 100.347656 75.667969 100.726562 75.734375 101.121094 75.722656 C 101.515625 75.710938 101.894531 75.625 102.253906 75.464844 C 102.613281 75.304688 102.929688 75.082031 103.199219 74.796875 C 103.472656 74.507812 103.675781 74.183594 103.820312 73.816406 C 103.960938 73.445312 104.023438 73.066406 104.015625 72.671875 C 104.003906 72.277344 103.917969 71.902344 103.757812 71.542969 Z M 173.5 113.816406 C 173.121094 112.972656 172.628906 112.199219 172.023438 111.496094 C 171.417969 110.792969 170.722656 110.195312 169.945312 109.695312 C 169.164062 109.195312 168.328125 108.816406 167.4375 108.5625 C 166.542969 108.304688 165.636719 108.183594 164.707031 108.191406 C 163.78125 108.203125 162.875 108.34375 161.988281 108.617188 C 161.105469 108.890625 160.277344 109.285156 159.503906 109.800781 C 158.734375 110.316406 158.054688 110.933594 157.464844 111.648438 C 156.875 112.363281 156.398438 113.144531 156.035156 114 C 155.867188 114.363281 155.773438 114.75 155.757812 115.152344 C 155.746094 115.554688 155.8125 115.945312 155.957031 116.324219 C 156.101562 116.699219 156.3125 117.03125 156.59375 117.324219 C 156.875 117.613281 157.203125 117.835938 157.574219 117.992188 C 157.945312 118.152344 158.335938 118.230469 158.738281 118.226562 C 159.144531 118.226562 159.53125 118.148438 159.902344 117.988281 C 160.273438 117.832031 160.597656 117.605469 160.878906 117.316406 C 161.160156 117.023438 161.371094 116.691406 161.515625 116.3125 C 161.792969 115.660156 162.226562 115.132812 162.816406 114.738281 C 163.410156 114.34375 164.058594 114.140625 164.769531 114.132812 C 165.484375 114.128906 166.136719 114.316406 166.738281 114.699219 C 167.335938 115.082031 167.78125 115.597656 168.070312 116.246094 C 168.234375 116.605469 168.457031 116.921875 168.742188 117.191406 C 169.03125 117.460938 169.359375 117.667969 169.726562 117.808594 C 170.09375 117.949219 170.476562 118.011719 170.871094 118 C 171.265625 117.992188 171.640625 117.90625 172 117.742188 C 172.359375 117.582031 172.675781 117.359375 172.949219 117.070312 C 173.21875 116.785156 173.421875 116.457031 173.5625 116.089844 C 173.703125 115.722656 173.769531 115.339844 173.757812 114.945312 C 173.746094 114.554688 173.660156 114.175781 173.5 113.816406 Z M 153.929688 59.101562 C 153.601562 59.320312 153.246094 59.472656 152.859375 59.550781 C 152.472656 59.632812 152.085938 59.632812 151.699219 59.5625 C 151.3125 59.488281 150.953125 59.339844 150.625 59.125 C 150.296875 58.910156 150.019531 58.636719 149.800781 58.3125 C 149.0625 57.222656 148.261719 56.1875 147.394531 55.199219 C 146.527344 54.214844 145.597656 53.285156 144.613281 52.417969 C 143.625 51.550781 142.589844 50.746094 141.5 50.011719 C 140.410156 49.273438 139.28125 48.609375 138.109375 48.019531 C 136.933594 47.425781 135.726562 46.910156 134.488281 46.472656 C 133.25 46.03125 131.988281 45.671875 130.703125 45.394531 C 129.417969 45.117188 128.121094 44.921875 126.8125 44.808594 C 125.503906 44.695312 124.191406 44.664062 122.878906 44.71875 L 93.382812 45.851562 C 92.320312 45.894531 91.285156 46.097656 90.28125 46.453125 C 89.277344 46.8125 88.347656 47.308594 87.496094 47.949219 C 86.644531 48.589844 85.902344 49.339844 85.277344 50.203125 C 84.65625 51.066406 84.171875 52 83.832031 53.011719 L 80.355469 63.421875 C 79.914062 64.761719 79.3125 66.023438 78.542969 67.207031 C 77.777344 68.390625 76.875 69.457031 75.832031 70.410156 C 74.792969 71.359375 73.648438 72.164062 72.398438 72.820312 C 71.152344 73.476562 69.839844 73.964844 68.46875 74.285156 L 63.09375 75.554688 L 63.09375 75.65625 C 63.101562 78.242188 62.617188 80.734375 61.636719 83.128906 C 60.660156 85.527344 59.261719 87.648438 57.445312 89.492188 C 56.070312 90.902344 54.515625 92.082031 52.785156 93.027344 C 51.050781 93.96875 49.21875 94.640625 47.285156 95.035156 L 47.976562 98.1875 C 48.199219 99.191406 48.507812 100.171875 48.894531 101.121094 C 49.285156 102.074219 49.75 102.988281 50.292969 103.859375 C 50.835938 104.734375 51.449219 105.554688 52.128906 106.324219 C 52.8125 107.09375 53.550781 107.800781 54.355469 108.449219 C 55.15625 109.09375 56.003906 109.667969 56.902344 110.167969 C 57.800781 110.671875 58.734375 111.09375 59.703125 111.4375 C 60.671875 111.78125 61.664062 112.042969 62.675781 112.222656 C 63.691406 112.398438 64.710938 112.488281 65.738281 112.496094 L 94.675781 112.496094 C 95.804688 110.378906 97.191406 108.445312 98.839844 106.695312 L 98.890625 106.644531 C 109.695312 94.890625 115.167969 82.191406 115.167969 68.855469 C 115.183594 68.46875 115.269531 68.101562 115.425781 67.75 C 115.582031 67.398438 115.800781 67.089844 116.078125 66.824219 C 116.355469 66.554688 116.671875 66.347656 117.03125 66.207031 C 117.386719 66.0625 117.757812 65.988281 118.144531 65.988281 C 118.527344 65.988281 118.898438 66.0625 119.257812 66.207031 C 119.613281 66.347656 119.933594 66.554688 120.210938 66.824219 C 120.488281 67.089844 120.703125 67.398438 120.859375 67.75 C 121.019531 68.101562 121.105469 68.46875 121.117188 68.855469 C 121.117188 83.742188 115.089844 97.835938 103.199219 110.742188 C 103.171875 110.773438 103.144531 110.804688 103.113281 110.832031 C 101.511719 112.546875 100.234375 114.476562 99.28125 116.621094 C 99.105469 117.019531 98.9375 117.425781 98.785156 117.835938 C 98.636719 118.242188 98.496094 118.65625 98.371094 119.074219 C 98.242188 119.496094 98.128906 119.914062 98.03125 120.339844 C 97.929688 120.765625 97.84375 121.195312 97.769531 121.625 C 97.695312 122.054688 97.636719 122.488281 97.589844 122.921875 C 97.542969 123.355469 97.507812 123.792969 97.488281 124.226562 C 97.46875 124.664062 97.464844 125.101562 97.472656 125.539062 C 97.480469 125.976562 97.5 126.410156 97.535156 126.847656 C 97.570312 127.28125 97.617188 127.714844 97.679688 128.148438 C 97.742188 128.582031 97.816406 129.011719 97.90625 129.4375 C 97.992188 129.867188 98.09375 130.292969 98.210938 130.710938 C 98.324219 131.132812 98.453125 131.550781 98.59375 131.964844 C 98.734375 132.378906 98.886719 132.789062 99.054688 133.191406 C 99.21875 133.597656 99.398438 133.996094 99.589844 134.386719 C 99.78125 134.78125 99.984375 135.167969 100.199219 135.546875 C 100.414062 135.925781 100.640625 136.300781 100.878906 136.667969 C 101.117188 137.035156 101.367188 137.390625 101.625 137.742188 C 101.886719 138.09375 102.160156 138.4375 102.441406 138.769531 C 102.722656 139.105469 103.015625 139.429688 103.316406 139.746094 C 103.617188 140.058594 103.929688 140.367188 104.25 140.664062 C 104.570312 140.960938 104.902344 141.246094 105.242188 141.519531 C 105.578125 141.796875 105.925781 142.0625 106.28125 142.316406 C 106.636719 142.570312 107 142.8125 107.371094 143.046875 C 107.742188 143.277344 108.117188 143.5 108.503906 143.707031 C 108.886719 143.914062 109.277344 144.113281 109.671875 144.296875 C 110.070312 144.480469 110.472656 144.652344 110.878906 144.8125 C 111.285156 144.96875 111.699219 145.117188 112.113281 145.25 C 112.53125 145.382812 112.949219 145.503906 113.375 145.613281 C 113.796875 145.71875 114.222656 145.816406 114.652344 145.894531 C 115.082031 145.976562 115.515625 146.042969 115.949219 146.097656 C 116.382812 146.152344 116.816406 146.195312 117.253906 146.222656 C 117.691406 146.25 118.125 146.261719 118.5625 146.261719 C 118.957031 146.261719 119.339844 146.339844 119.703125 146.488281 C 120.066406 146.640625 120.390625 146.855469 120.667969 147.132812 C 120.949219 147.414062 121.164062 147.734375 121.3125 148.097656 C 121.464844 148.464844 121.539062 148.84375 121.539062 149.238281 C 121.539062 149.632812 121.464844 150.011719 121.3125 150.375 C 121.164062 150.738281 120.949219 151.0625 120.667969 151.339844 C 120.390625 151.617188 120.066406 151.832031 119.703125 151.984375 C 119.339844 152.136719 118.957031 152.210938 118.5625 152.210938 C 115.34375 152.214844 112.222656 151.65625 109.199219 150.542969 L 109.199219 169.308594 C 109.199219 175.550781 111.964844 185.609375 119.804688 193.425781 C 120.09375 193.703125 120.320312 194.023438 120.480469 194.390625 C 120.640625 194.757812 120.722656 195.140625 120.726562 195.542969 C 120.730469 195.945312 120.660156 196.328125 120.507812 196.699219 C 120.355469 197.070312 120.140625 197.398438 119.855469 197.683594 C 119.570312 197.964844 119.246094 198.183594 118.871094 198.332031 C 118.5 198.484375 118.117188 198.558594 117.714844 198.554688 C 117.3125 198.546875 116.929688 198.464844 116.5625 198.304688 C 116.195312 198.144531 115.871094 197.921875 115.59375 197.628906 C 103.84375 185.886719 103.253906 171.992188 103.253906 169.308594 L 103.253906 147.46875 C 102.117188 146.691406 101.046875 145.828125 100.039062 144.886719 C 99.035156 143.941406 98.109375 142.929688 97.257812 141.84375 C 96.410156 140.757812 95.648438 139.613281 94.972656 138.414062 C 94.300781 137.210938 93.722656 135.964844 93.238281 134.675781 C 92.753906 133.386719 92.371094 132.066406 92.089844 130.71875 C 91.808594 129.371094 91.632812 128.007812 91.558594 126.632812 C 91.484375 125.257812 91.515625 123.882812 91.65625 122.511719 C 91.792969 121.140625 92.03125 119.789062 92.378906 118.457031 L 65.753906 118.457031 C 64.386719 118.449219 63.03125 118.328125 61.683594 118.09375 C 60.339844 117.859375 59.023438 117.511719 57.738281 117.054688 C 56.449219 116.597656 55.210938 116.035156 54.019531 115.371094 C 52.828125 114.703125 51.699219 113.941406 50.632812 113.085938 C 49.570312 112.230469 48.585938 111.292969 47.683594 110.269531 C 46.777344 109.246094 45.964844 108.15625 45.242188 107 C 44.523438 105.839844 43.902344 104.628906 43.386719 103.363281 C 42.871094 102.101562 42.464844 100.804688 42.167969 99.472656 L 40.789062 93.160156 C 40.789062 93.136719 40.789062 93.109375 40.789062 93.085938 L 38.328125 81.878906 C 38.242188 81.46875 38.195312 81.050781 38.1875 80.628906 C 38.179688 80.207031 38.210938 79.789062 38.285156 79.371094 C 38.359375 78.957031 38.472656 78.554688 38.625 78.160156 C 38.777344 77.765625 38.964844 77.390625 39.191406 77.035156 C 39.414062 76.679688 39.671875 76.34375 39.960938 76.039062 C 40.25 75.730469 40.566406 75.453125 40.910156 75.207031 C 41.25 74.960938 41.613281 74.75 41.996094 74.574219 C 42.382812 74.398438 42.777344 74.261719 43.1875 74.164062 L 59.191406 70.375 L 59.320312 70.34375 L 67.097656 68.5 C 67.976562 68.292969 68.816406 67.980469 69.617188 67.5625 C 70.417969 67.140625 71.148438 66.625 71.816406 66.015625 C 72.484375 65.40625 73.0625 64.722656 73.554688 63.960938 C 74.042969 63.203125 74.429688 62.394531 74.710938 61.539062 L 78.191406 51.125 C 78.453125 50.339844 78.777344 49.578125 79.15625 48.839844 C 79.539062 48.101562 79.96875 47.394531 80.457031 46.722656 C 80.941406 46.050781 81.476562 45.417969 82.058594 44.824219 C 82.640625 44.234375 83.265625 43.6875 83.929688 43.191406 C 84.59375 42.695312 85.292969 42.25 86.023438 41.855469 C 86.753906 41.464844 87.511719 41.128906 88.292969 40.847656 C 89.078125 40.570312 89.875 40.351562 90.691406 40.195312 C 91.507812 40.035156 92.328125 39.941406 93.160156 39.90625 L 122.652344 38.78125 C 124.21875 38.714844 125.78125 38.75 127.339844 38.882812 C 128.898438 39.019531 130.445312 39.25 131.976562 39.582031 C 133.503906 39.914062 135.007812 40.339844 136.484375 40.863281 C 137.960938 41.386719 139.398438 42 140.792969 42.707031 C 142.191406 43.410156 143.539062 44.203125 144.835938 45.078125 C 146.132812 45.957031 147.367188 46.914062 148.542969 47.949219 C 149.714844 48.980469 150.820312 50.085938 151.855469 51.261719 C 152.886719 52.4375 153.84375 53.675781 154.71875 54.972656 C 154.9375 55.296875 155.089844 55.652344 155.167969 56.039062 C 155.25 56.425781 155.253906 56.8125 155.179688 57.199219 C 155.105469 57.585938 154.960938 57.945312 154.742188 58.273438 C 154.527344 58.605469 154.253906 58.878906 153.929688 59.101562 Z M 57.078125 76.980469 L 44.558594 79.945312 C 44.410156 79.984375 44.296875 80.066406 44.214844 80.195312 C 44.132812 80.324219 44.109375 80.464844 44.140625 80.613281 L 46.019531 89.238281 C 46.742188 89.089844 47.449219 88.886719 48.136719 88.625 C 48.828125 88.363281 49.492188 88.046875 50.132812 87.683594 C 50.773438 87.316406 51.382812 86.898438 51.957031 86.4375 C 52.53125 85.972656 53.066406 85.46875 53.558594 84.921875 C 54.054688 84.375 54.5 83.789062 54.902344 83.171875 C 55.304688 82.550781 55.65625 81.90625 55.953125 81.230469 C 56.253906 80.558594 56.496094 79.863281 56.6875 79.152344 C 56.875 78.4375 57.003906 77.714844 57.078125 76.980469 Z M 57.078125 76.980469 " fill-opacity="1" fill-rule="nonzero"/></g><g fill="#000000" fill-opacity="1"><g transform="translate(105.193634, 237.011992)"><g><path d="M 5.226562 0 L 5.226562 -6.003906 L 9.496094 -6.003906 C 13.117188 -6.003906 15.125 -8.441406 15.125 -11.355469 C 15.125 -14.296875 13.140625 -16.757812 9.496094 -16.757812 L 1.660156 -16.757812 L 1.660156 0 Z M 11.480469 -11.382812 C 11.480469 -9.976562 10.425781 -9.070312 9.019531 -9.070312 L 5.226562 -9.070312 L 5.226562 -13.691406 L 9.019531 -13.691406 C 10.425781 -13.691406 11.480469 -12.761719 11.480469 -11.382812 Z M 11.480469 -11.382812 "/></g></g></g><g fill="#000000" fill-opacity="1"><g transform="translate(123.384827, 237.011992)"><g><path d="M 13.515625 0 L 13.515625 -3.089844 L 5.226562 -3.089844 L 5.226562 -6.984375 L 13.339844 -6.984375 L 13.339844 -10.050781 L 5.226562 -10.050781 L 5.226562 -13.691406 L 13.515625 -13.691406 L 13.515625 -16.757812 L 1.660156 -16.757812 L 1.660156 0 Z M 13.515625 0 "/></g></g></g><g fill="#000000" fill-opacity="1"><g transform="translate(140.545893, 237.011992)"><g><path d="M 9.121094 0 L 9.121094 -13.617188 L 13.996094 -13.617188 L 13.996094 -16.757812 L 0.628906 -16.757812 L 0.628906 -13.617188 L 5.527344 -13.617188 L 5.527344 0 Z M 9.121094 0 "/></g></g></g><g fill="#000000" fill-opacity="1"><g transform="translate(157.681836, 237.011992)"><g><path d="M 0.503906 -2.363281 C 2.085938 -0.777344 4.398438 0.300781 7.613281 0.300781 C 12.136719 0.300781 14.320312 -2.011719 14.320312 -5.074219 C 14.320312 -8.792969 10.804688 -9.621094 8.039062 -10.25 C 6.105469 -10.703125 4.699219 -11.054688 4.699219 -12.1875 C 4.699219 -13.191406 5.550781 -13.894531 7.160156 -13.894531 C 8.792969 -13.894531 10.601562 -13.316406 11.960938 -12.058594 L 13.945312 -14.671875 C 12.285156 -16.207031 10.074219 -17.007812 7.410156 -17.007812 C 3.46875 -17.007812 1.054688 -14.75 1.054688 -11.960938 C 1.054688 -8.214844 4.574219 -7.460938 7.3125 -6.835938 C 9.246094 -6.382812 10.703125 -5.953125 10.703125 -4.699219 C 10.703125 -3.742188 9.75 -2.8125 7.789062 -2.8125 C 5.476562 -2.8125 3.644531 -3.84375 2.460938 -5.074219 Z M 0.503906 -2.363281 "/></g></g></g></svg>